<?xml version="1.0" encoding="UTF-8"?>
<svg id="Layer_2" data-name="Layer 2" xmlns="http://www.w3.org/2000/svg" viewBox="0 0 204.68 151.78">
  <defs>
    <style>
      .cls-1 {
        stroke: #294621;
        stroke-miterlimit: 10;
        stroke-width: 2px;
      }

      .cls-1, .cls-2 {
        fill: #294621;
      }
    </style>
  </defs>
  <g id="Layer_1-2" data-name="Layer 1">
    <g>
      <path class="cls-2" d="M70.54,136.77c-7.32,5.9-16.79,3.58-32.49,9.81-7.48,2.97-18.03,7.39-22.33,3.92s.65-13.17,5.33-20.88c-12.05.92-22.19-9.25-20.95-14.4.27-1.11,1.57-2.9,3.16-3.58l27.19-11.58c-3.89-7.55-3.89-16.1,1.23-23.07,4.99-6.79,12.02-14.33,20.37-17.26,15.5-5.43,31.92-4.79,48-3.3,11.47,1.06,22.32,1.85,33.96-1.14-5.67-11.84-6.92-24.69,4.76-29.53l19.74-8.18c10.15-4.21,5.04-11.24,9.04-17.58,8.19,7.1,13.9,21.22,11.42,30.76l24.96-2.76c1.62,4.35.53,9.39-2.78,12.78l-12.15,12.42c-4.46,4.56-10.03,6.76-16.3,8.45,3.28,15.08,6.87,27.99-5.3,33.94s-23.84,9.06-36.89,10.22l-31.43,2.8c-11.91,1.06-23.19,3.92-33.84,10.15.71,4.3,3.45,7.32,6.08,10.67,1.46,1.87,1.06,5.86-.79,7.35ZM171.91,57.19c7.21-1.66,11.96-4.62,16.37-8.78,5.4-4.24,10.35-8.71,12.97-15.57l-23.18,2.34c-1.24.12-2.5-.36-2.96-.86-.58-.62-.78-2.12-.23-3.16,4.1-7.9-.49-16.67-5.9-24.12,1.98,18.39-22.12,15.14-34.44,26.77-1.26,1.19-1.44,3.22-.56,4.49,5.97,8.68,28.25-8.22,32.65.76,2.72,5.57,1.74,12.74,5.29,18.14ZM157.83,43.54c-.06-.99-.92-2.39-1.85-2.14l-2.87.76c-1.25.33-3.45.65-3.85,1.9-.24.76,2.31,5.09.6,6.21-.22-1.52-1.72-5.62-2.34-6.02-.71-.45-2,.18-2.02.67-.03.53.08,1.6.47,2.77,1.66,4.88.2,8.96-1.42.64.43-1.44-.25-2.92-.95-3.27-.59-.3-1.96-.22-2.51.81-.31.58,1.35,6.1,3.4,5.91,1.1-.1,2.89-.26,3.75-1.51l1.58-2.27,2.6.71c3.7-1.98,8.31-3.22,12.05-5.75.48-2.5-5.42-2.96-5.72-1.97-.15.48.09,1.26.26,1.55.02.15.08.33.3.5l.52,4.14-2-3.65ZM139.73,52.79c-1.22-5.82-.16-14.55.7-7.02-2.99-.95-4.65-2.11-7.44-.77,3.67,2.52,4.35,4.55,3.2,8.01-.46,1.4,3.88,1.43,3.53-.22ZM86.42,106.26l35.97-3.98c13.47-1.49,25.79-3.65,38.45-8.04,4.67-1.62,9.73-3.08,11.07-8.92,1.34-5.84.66-12.45-1.02-18.28l-6.09-21.04c-7.84,6.03-15.48,8.84-23.93,11.6-13.38,4.37-26.05,5.12-40.19,3.3-16.07-2.07-32.8-2.2-48.21,3.25-8.8,3.11-23.93,18.56-21.38,27.46l5.92,20.67c1.52,5.31,4.99,10.2,8.41,14.7,3.11,4.09,17.14-18.09,41.02-20.73ZM68.15,132.06c-6.95-4.38-15.21,4.14-24.72,1.47-2.03-5.94-6.2-10.68-8.05-16.43l-4.01-12.44-27.88,11.95c6.79,12.1,20.95,6.59,22.09,9.82,1.61,4.56-7.67,10.95-8.07,20.56,3.76.51,7.95.27,11.35-1.34,12.7-5.99,25.26-9.82,39.28-13.59ZM64.77,126.32c1.29-.3.18-2.2-.44-2.07-1.84.39-2.94-2.8-3.22-2.5l-1.77,1.88c-1.28,0-3.35,2.12-1.56,3.2,1.37.83,5.06-.06,7-.51ZM55.26,128.39c1.95-.83.45-1.89-.17-1.66-.32.12-1.2,1.02-1.6,1.53-.14.18.58.64,1.77.13Z"/>
      <path class="cls-2" d="M112.21,92.27c-8.69-5.19-13.21-13.94-8.78-15.91,2.04-.91,4.53.58,6.17,3.22,1.08-2.79,1.31-5.94,4.75-6.97,3.22,6.81,1.09,13.31-2.14,19.66Z"/>
      <path class="cls-2" d="M151.68,81.77c-6.4-4.39-11.05-11.18-7.85-12.97,2.2-1.23,4.45.91,6.92,2.85.23-2.71,1.94-7.23,4.78-6.98,3.52,5.34-.16,12.79-3.86,17.1Z"/>
    </g>
    <path class="cls-2" d="M56.28,101.65c-5.65-3.76-12.57-12.07-8.33-15.36,2.03-1.58,4.72-.23,6.15,1.71,1.09-1.83,1.48-3.64,3-4.8.74-.57,1.76-.25,2.24.32,2.14,2.52.25,9.26-1,14.25-.35,1.4-.53,2.66-2.06,3.88Z"/>
    <path class="cls-2" d="M133.2,88.27c-3.39-1.93-9.01-8.55-9.61-11.18-.48-2.08.52-3.98,2.37-4.8,1.54-.68,3.35-.09,4.86,1.9.97-1.32,1.99-3.53,3.95-3.5,5.13.08,1.63,11.42-1.56,17.59Z"/>
    <path class="cls-2" d="M82.08,95.02c-5.25-3.2-10.74-9.41-7.75-12.53,1.79-1.88,5.06-.38,7.15,2.88l2.07-5.13c.49-1.22,1.4-1.97,2.56-1.91,4.4.26,1.72,9.72-1.53,15.62-.32.58-1.6,1.62-2.5,1.07Z"/>
    <path class="cls-1" d="M145.06,43.63c-.51,3.07-.11,6.28,1.14,9.13"/>
  </g>
</svg>