<?xml version="1.0" encoding="UTF-8"?>
<svg id="Layer_2" data-name="Layer 2" xmlns="http://www.w3.org/2000/svg" viewBox="0 0 152.11 132.33">
  <defs>
    <style>
      .cls-1 {
        fill: #294621;
      }
    </style>
  </defs>
  <g id="Layer_1-2" data-name="Layer 1">
    <path class="cls-1" d="M38.83,126.1c-2.4-1.76-5.34-5.06-8.02-3-1.47,1.13-2.48,2.99-4.51,2.72-1.64-.22-2.76-1.28-5.23-2.89-.49,2.69-4.49,7.52-7.19,5.34-4.69-3.79-3.07-11.05-1.27-16.28-3.92,1.41-8.3,1.73-10.91-1.09-2.37-2.57-2.38-8.14.86-10.95,2.43-2.1,6.33-1.03,10.28-.3-1.22-8.12-.53-14.94,4.14-14.37,1.89.23,3.08,1.81,4.44,4.32.49-3.91,2.48-10.03.8-14.21s-3.1-6.74-1.31-11.59c1.25-3.39,2.74-6.06,7.1-6.4l16.37-1.28-.64-18.5c-.09-2.49,1.16-6.06-.09-8.26-1.49-2.62-3.37-4.39-2.92-7.31.36-2.35,1.62-6.02,4.94-6.55l10.42-1.67,29.92,2.23c-2.41-2.39-5.25-3.99-6.06-6.23-1.1-3.06-1-7.26,1.52-8.85,2.68-1.68,5.38,1.09,7.01,2.19,1.53-1.22,3.01-3.31,4.83-3.15,1.61.14,3.37,1.21,4.06,3.27,2.48,7.37-2.5,9.07-8.36,13.43,16.08,2.2,32.46,3.3,46.65,11.47,4.72,2.72-.79,13.31-5.5,13.31-1.35,5.3-2.88,8.31-2.09,13.42,2.06-3.46,3.34-9.7,8.16-9.84,2.48,1.16.98,6.83-.19,9.41,3.06-.8,5.89-4.31,9.53-3.26,2.1.61.46,4.99-1.06,6.24l-5.52,4.55c2.58,1.7,3.8,4.21,3.45,7.92,2.87.67,5.79,1.14,7.68,3.33,2.39,2.76,2.44,6.14,1.25,9.15s-3.59,5.6-8.12,6.5c-.96,12.95-4.41,24.87-7.9,37.58l5.72.34c1.18.07,1.17,3.67-.35,4.12-7.03,2.01-14.23,1.32-21.5,1.1l-20.29-.63-46.36-6.05c-2.42-.32-5.71,1.24-8.19-.1l-5.53.85ZM94.28,31.45c2.03.02,3.96-1.47,5.97-3.46l11.55,6.28c1.55.84,3.75,1.95,4.81,1.01l3.4-3.03c1.74-1.55,4.89,4.47,10.31,3.71,1.28-.18,3.05-1.13,3.93-3.86-12.6-5.19-25.53-8.22-39.42-9.62l-41.92-4.22c-4.26,2.74-9.46,1.4-8.95,4.59.55,3.44,7.79,2.69,14.62-.66.86,2.36,2.22,4.16,3.87,4.25,3.76.2,5.77-3.5,8.03-2.96,2.09.5,3.21,5.16,7.36,5.22,2.05.03,3.41-1.57,5.17-2.94,2.74-2.13,5.14,5.59,11.29,5.65ZM126.75,41.07l-6.23-3.63c-4.76,6.67-10.87.58-19.5-3.67-2.74,1.36-5.92,3.57-9.22,2.52-2.43-.77-4.74-3.45-7.63-4.79-2.18.31-5.25,2.95-8.27,2.25-2.04-.47-3.51-3.31-6.15-4.16-2.17-.7-6.62,5.18-12.86-1.22l-10.06,2.84.85,24.83c18.01.07,34.56,2.52,52.64,5.42-1.45-3.06-2.38-5.69-.86-8.99.79-1.72,3.26-2.81,5.35-4.67,1.57-1.41,2.58-3.27,4.8-2.52,1.36.46,2.18,2.34,3.42,4.39,1.16-.98,5.05-4.27,6.6-1.75,1.28,2.08,1.85,4.73,4.8,4.58l2.32-11.41ZM110.44,62.32c3.36,0,3.14-4.88,1.1-4.88-2.57,0-2.9,4.88-1.1,4.88ZM129.48,64.77c2.51-.03,2.63-4.33,1.4-4.73-2.06-.68-2.25.81-2.64,1.43-.66,1.05-.83,3.32,1.23,3.3ZM110.66,81.24c2.94-.41,4.56-2.24,6.84-6.21,1.7,4.7,4.03,7.24,8.3,7.5,2.3.14,4.23-3.64,2.85-4.61-2.75-1.93-3.15-3.35-3.44-6.85-2.56,2.21-3.84,3.6-6.48,3.76l-1.55-3.83c-3.94-.75-8.83-.23-12.48-1.99-2.83-1.36-4.64-2.72-8.1-3.26-21.08-3.27-41.98-4.88-63.31-4.96-2.49.14-5.32,2.02-7.38,2.86-.52,2.51-.76,6.74.66,8.26,5.35,2.38,10.78.22,15.9-3.35,1.32,4.02,2.66,6.7,5.48,6.91,6.3.49,7.8-6.25,10.15-5.59,2.19.62,5.55,9.28,11.66,6.86,2.64-1.04,3.56-4.17,5.27-6.62l9.06,7.31c9.92,5.69,15.4-3.88,17.35-3.39s2.16,8.18,9.22,7.18ZM148.63,78.7c.04-2.83-3.78-3.28-5.27-3.44l-12.03-1.36c.98,4.33,4.12,7.18,7.89,9.29,3.36,1.88,9.34.14,9.41-4.48ZM140.15,88.84c-3.95-1.31-6.19-3.57-8.83-6.01-1.24,2.64-2.77,4.16-4.21,4.47-2.01.44-4.16.31-5.7-.83l-4.54-3.32c-2.85,2.91-6.06,3.55-9.99,2.98-2.43-.35-4.39-2.85-6.05-6.44-7.7,7.6-17.26,4.7-25.18-2.88-1.6,1.9-2.89,4.08-5,4.77-5.1,1.67-9.96-1.36-12.84-6.29-2.76,3.34-5.57,4.95-8.85,5.11-3.71.18-6.36-1.48-7.9-5.71-4.58,3.51-9.78,4.15-15.27,2.26l-1.18,17.8c3.16-1.24,5.76-1.3,7.8-.14,5.3,3.03.02,10.22,6.4,10.12,2.08-.03,1.77-6.5,6.89-5.19,1.2.31,1.37,3.95,2.49,4.46,9.11,4.16,4.15,6.99,6.66,16.32l44.19,5.93,34.03,1.24c.52-12.42,6.78-24.69,7.08-38.66ZM18.66,111.09c1.96.88,3.34-1.92,3.21-3.61-.1-1.27-.08-3.98-3.12-3.13-1.86.53-2.3,5.75-.1,6.74ZM43.29,117.19c1.34-.19,1.7-4.69.05-5.35-1.97-.78-2.89,1.6-2.71,2.67.14.83-.41,3.1,2.66,2.67Z"/>
  </g>
</svg>