<?xml version="1.0" encoding="UTF-8"?>
<svg id="Layer_2" data-name="Layer 2" xmlns="http://www.w3.org/2000/svg" viewBox="0 0 122.49 149.57">
  <defs>
    <style>
      .cls-1 {
        fill: #294621;
      }
    </style>
  </defs>
  <g id="Layer_1-2" data-name="Layer 1">
    <g>
      <path class="cls-1" d="M59.95,57.67l-1.79-4.4c-1.31,1.46-.27,2.85.05,4.34,2.98,14.11,3.37,29.57-.99,43.86-1.14,3.72-1.8,4.41-1.06,8.8l5.4,31.81,12.33,3.27c1.59.42,2.18,1.28,2.06,2.33-.19,1.51-1.26,2.13-2.92,1.8l-9.41-1.85c-3.92.43-5.6.45-9.21-1.62-2.8-1.6-11.48-3.3-8.86-7.41,1.51-2.37,5.77,1.95,11.63,2.31-1.8-12.05-4.1-23.36-4.05-35.31-3.45-1.79-5.98-3.86-8.14-6.78-9.4-12.66-16.36-26.99-20.07-42.46-.6-2.5-.37-4.13-2.65-6.34,6.27,1.41,10.88,1.17,16.17-1.41,8.72-4.25,16.22-8.17,17.26-1.56,7.94-4.43,13.55-11.85,14.02-21.65,3.48-.75,5.3,1.22,7.21,3.55,9.92,12.12,16.8,26.16,23.21,40.38,2.47,5.48-.19,11.26,1.58,16.07l9.27,25.17,7.22-10.11c.65-.91,1.09-1.64,1.75-1.83,1.04-.3,2.03.17,2.3.75.36.78.25,2.05-.22,3.02l-8.05,16.7-5.61,10.79c-.62,1.19-1.7,1.34-2.6,1.19-1.36-.22-1.75-1.63-1.2-3.15l4.49-12.42c-3.27-8.2-7.43-15.77-8.62-24.56-2.07-15.24-6.65-29.43-14.89-41.76-1.45,7.41-4.97,11.38-11.4,10.36-1.05,2.4-1.94,4.29-3.85,6.64,5.79,7.18,12.85,12.87,21.15,17.19,2.49,1.29,4.61,2.68,6.32,4.73-16.37-1.67-30.05-16.28-37.85-30.45ZM72.69,56.38l6.82-1.47,5.97-6.63-12.39-17.31c-2.24,8.41-6.3,13.58-14.72,15.94,4.06,6.95,6.71,13.2,12.02,18.46.74-3.43-.41-6.84,2.3-9ZM48.36,67.89c1.96,1.5,5.76,3.05,7.57,1.15l-4.01-21.56-11.83,4.79c-3.84,1.55-6.97,2.6-12.31,1.89,1.57,6.26,3.79,13.36,9.29,18,2.87,2.42,5.79-8.47,11.29-4.26ZM53.42,101.1c3.09-11.23,3.56-20.53,2.8-30.55-3.63,3.26-7.93.59-10.43.81-2.95,1.98-5.28,5.05-9.47,5.22,4.73,9.75,9.07,18.3,17.1,24.52Z"/>
      <path class="cls-1" d="M3.28,47.2l9.17,8.94c-7.02,1.75-13.54-4.73-12.3-8.3.23-.65,1.92-1.82,3.13-.64Z"/>
      <path class="cls-1" d="M82.6,16.67c-1.89-5.97-2.02-10.9-.02-16.67,3.55,5.26,3.21,11.65.02,16.67Z"/>
      <path class="cls-1" d="M9.84,33.28c3.1-1.6,4.29,4.76,9.8,9.67-7.96-.2-12.84-8.1-9.8-9.67Z"/>
      <path class="cls-1" d="M17.74,65.95c-1.34,2.27-4.74,2.06-7.25,1.03-1.74-.71-3.52-2.78-4.35-5.97,3.78.39,7.26,1.47,11.6,4.95Z"/>
      <path class="cls-1" d="M98.14,23.85c-.64-4.94.88-8.87,2.96-13.53,2.75,4.53,1.92,10.2-2.96,13.53Z"/>
      <path class="cls-1" d="M89.64,22.82c-1.5-5.32-.85-9.8,2.29-14.46,1.64,5.18.58,9.92-2.29,14.46Z"/>
      <circle class="cls-1" cx="87.93" cy="69.85" r="2.03"/>
      <circle class="cls-1" cx="79.44" cy="67.98" r="1.95"/>
      <circle class="cls-1" cx="86.74" cy="60.91" r="1.94"/>
      <circle class="cls-1" cx="49.66" cy="81.15" r="1.95"/>
      <circle class="cls-1" cx="43.34" cy="80" r="1.93"/>
      <circle class="cls-1" cx="50.17" cy="90.63" r="1.93"/>
    </g>
  </g>
</svg>