<?xml version="1.0" encoding="UTF-8"?>
<svg id="Layer_2" data-name="Layer 2" xmlns="http://www.w3.org/2000/svg" viewBox="0 0 341.78 335.18">
  <defs>
    <style>
      .cls-1 {
        fill: #294621;
      }
    </style>
  </defs>
  <g id="Layer_1-2" data-name="Layer 1">
    <g>
      <path class="cls-1" d="M15.41,64.43c-.18,8.06,1.3,17.03-2.8,22.43-.68.9-4.19,1.11-4.41-.17L2.62,54.09c-.96-5.62-4.66-15.92-1.11-18.56.95-.71,3.07-.48,4.43.86,16.53,16.38,36.46,4.41,38.4,11.47,1.74,6.35-11.7,8.63-22.9,8.88l24.64,18.05c1.33.99,4.46-1.4,4.78-2.36-4.64-4.09-3.82-9.89.19-13.7,3.7-3.51,7.7-5.86,13.52-5.53-3.06-3.55-4.34-7.83-2.05-11.89,2.8-4.95,8.03-6.78,13.64-6.95-1.75-4.18-1.61-7.63.7-10.81,5.55-7.66,16.99-9.23,24.42-2.98,1.1-7.07,3.56-12.94,8.78-17.19,3.88-3.15,8.57-4.39,13.21-2.47,4.16,1.72,6.84,5.74,8.14,11.89,5.34-7.33,12.57-10.83,21.05-8.29,5.99,1.79,6.08,5.62,5.45,12.17,5.09-3.51,9.55-6.3,15.51-6.2,3.91.06,8.01,2.22,8.82,6.16.73,3.52-1.24,6.41-1.88,10.53,6.39-2.93,13.69-2.44,16.84,3.52,1.96,3.7-.32,7.78-2.15,11.45,2.86-.99,6.46-1.87,9.35-.92,6.12,2.02,6.58,9.9,3.29,17.43,7.09-.9,12.6,1.69,13.51,8.19l6.75-6.53c1.46-1.41,4.76-2.44,6.35-.78,1.91,1.99,1.09,5.18,1.6,7.8,4.09-3.46,7.18-6.16,11.82-6.99,3.57-.64,5.74,1.58,6.96,5.05,4.34-4.29,9.87-7.05,15.22-5.17,4.14,1.46,4.54,6.6,4.85,11.03,4.76-5.73,12.93-9.53,19.92-6.14,3.3,1.6,3.43,6.62,3.52,9.99,5.14-2.14,10.66-3.63,15.77-1.32,4.09,1.85,4.15,6.43,2.3,10.73,5.45-1.99,10.67-2.23,13.68,2.07,2.35,3.35.92,7.58-1.61,11.61,4.3.39,8.8-.18,11.56,3.09s2.41,7.57.17,10.82c-2.01,2.91-5.29,6-10.07,4.92,3.26-1.93,6.08-4.22,7.59-7.8,1.17-2.76.08-5.97-2.85-6.77s-5.8-.84-9.19.41c3.81,10.19,3.44,20.32,1.43,31.06,3.71-1.05,6.22-4.12,7.08-7.51.8-3.14-.68-5.34-3.28-6.93,4.79-1.25,7.49,2.87,7.01,6.73-.56,4.54-3.5,7.59-7.32,10.62,2.57,2.91,4.27,5.56,4.31,8.91.09,7.02-8.32,12.9-15.8,10.66,4.43-2.75,9.24-3.56,11.39-7.95,1.9-3.89-1.02-9.12-4.7-9.74-2.03,7.1-5.05,12.55-8.31,18.75,4.85,3.99,5.66,10.23,1.7,14.59-2.98,3.28-8.17,3.3-11.7,4.98-1.62,3.17-2.12,7.99-5.14,9.94-3.99,2.58-7.25,3.49-12.87,1.99.92,3.41,1,5.32-.47,7.96-.94,1.68-3.37,3.31-6.32,3.56l-8.72.75c.25,7.19-4.53,12.35-11.91,12.62-1.28.05-4.39-.64-5.25.86-1.78,3.11-3.86,5.88-6.37,6.81-3.67,1.36-7.27,1.18-10.29-1.15,7.01-.28,13.06-2.57,13.24-9.63l-14.92,8.43c-4,2.26-9.46,3.36-13.18,6.96-.88,1.74,3.21,4.39,5.65,3.22,4.42-2.12,6.12-5.07,8.37-9.61,2.08,6.71-1.85,11.22-8.69,13.54l17.32,15.75c5.34,4.85,13.42,3.35,19.81,1.83,8.81-2.09,19.09-.47,20.37,4.09.36,1.28-.36,3.27-1.9,3.72l-21.33,6.3c4.86,3.75,8.68,9.94,14.63,12.13l17.39,1.36c7.67.6,20.87,6.48,19.64,12.22-.41,1.92-2.48,3.01-4.75,2.86l-16.77-1.1,4.23,6.41,9.17,10.22,5.68,9.04c-10.36-3.07-18.09-10.95-26.41-18.06l-10.87-9.3c1.25,8.84,4.28,17.03.44,22.36-4.04,5.59-11.34-9.97-11.57-24.62l1.48-7.5c-3.61-3.57-6.74-6.65-10.97-9.31,1.43,10.7-.73,21.85-5.87,19.29-2.8-1.39-4.52-4.6-4.66-7.69l-.93-20.68c-9.56-9.56-16.86-20.07-24.28-31.4-.46,4.19-1.18,6.99-4.21,8.5-2.85,1.42-6.36,1.08-10.19-1.42-.35,3.49-1.73,6.5-4.15,7.83-3.11,1.7-6.58,1.06-10.2-1.03-1.97,2.51-3.19,5.21-5.37,6.09-3.15,1.27-6.64,1.8-9.16-.99,5.14-.67,9.18-1.5,10.03-6.31l-11.38,5.57c.04,2.32.47,5.36-.98,7.17-3.73,4.63-10.09,4.95-15.87,2.8.93,4.08.98,7.68-2.5,10-2.6,1.73-6.86,2.98-10.17.53,6.1-1.32,11.3-3.55,10.96-9.8-4.58,2.69-9.13,5.45-12.61,8.79.57,3.21,2.23,6.98-.34,10.01-1.95,2.3-4.61,5.26-9.33,4.97-1.49,4.73-4.22,8.5-9.73,8.64.26,5.91-.83,11.68-4.6,13.41-2.12.97-4.14.64-6.98-.24.19,6-.95,11.33-4.77,12.04-2.09.39-4.12-.98-6.28-2.37-4.68,7.29-8.13,14.22-14.68,19.75,1.42-9.73,6.51-17.01,10.29-25.24,1.52-3.31.42-7.59.86-11.26-2.72,1.31-6.5,3.27-7.91,6.36-.01,2.1,4.18,2.99,6.26,3.29-2.42,3.13-9.14,1.55-10-2.64-.77-3.77,3.1-6.09,6.52-8.03-2.66-1.85-4.73-2.96-5.35-5.23-.65-2.39-.27-5.18,1.84-6.91l5.46-4.47c-3.68-2.05-5.48-5.78-3.79-9.18,1.47-2.96,4.2-4.39,6.79-5.8-3.5-.73-5.76-1.75-6.93-4.2-2.17-4.52,1.97-8.64,4.51-11.76-3.28-1.61-8.16-3.42-8.86-7.23-.85-4.59-.56-8.45,3.96-10.87-3.63-.97-5.28-2.37-6.05-4.53-.99-2.79-.47-5.78,1.9-7.83l4.91-4.26c-4.47-1.27-8.53-3.29-10.66-7.14-2.01-3.63-.13-7.49,2.62-10.5-4.51.21-8.81-.53-10.73-3.6-2.02-3.24-1.16-7.57,1.81-11.37-5.19-1.47-9.84-4.01-11.97-8.87-1.68-3.83.19-6.58,1.85-10.58-6.53.67-11.71-3.51-11.67-8.72.03-3.4,2.92-5.8,4.75-8.33-3.69-.38-6.67-.44-9.73-1.96-3.5-1.75-4.82-5.92-2.44-9.16,1.83-2.49,3.8-4.45,7.21-5.72-.93,2.94-2.59,4.49-4.04,6.85-1.28,2.07-.29,4.58,2.06,5.24,2.9.81,5.78,1.13,9.29.27-4.46-8.98-8.29-17.38-10.01-26.59-2.23,1.67-5.14,3.76-4.9,6.15.41,3.95,4.65,5.64,7.6,6.71-4.7,1.59-8.96-.39-10.8-3.86-2.13-4.01.46-7.4,4.56-11.17-4.72-1.22-9-2.84-9.68-7.16-1.57-9.96,10.85-11.85,12.31-12.88.63-.45,1.2-2.46.51-2.95-2.08-1.47-3.87-2.8-6.81-3.61l5.66,5.79c-2.94.29-5.08-.94-6.89-1.79-2.44-1.15-2.49-4.48-2.68-7.09-8.14-6.36-15.87-12.85-23.08-19.68l-.92.76ZM126.3,16.32c2.24-2.99.17-9.46-2.95-11.1-3.89-2.05-8.66-2.02-11.83,1.73-4.08,4.81-6.81,10.69-7.88,16.43,7.42-3.68,15.37-5.34,22.66-7.05ZM153.02,17.72c.99-1.82,2.55-6.88.71-8.2-7.17-5.13-15.99-.59-19.6,6.24,6.88-.18,12.38.67,18.89,1.96ZM175.27,28.93c2-4.59,4.44-9.79,2.69-12.83-5.54-4.26-13.37-.71-17.51,4.28l14.82,8.55ZM84.67,34.67l16.18-9.81c-3.68-4.52-8.12-4.99-12.9-4.07-3.48.67-7.37,2.8-9.14,7.1-1.21,2.94,2.77,8.66,5.86,6.79ZM195.54,92.61l3.79-6.06c-2.98-.06-3.24,2.76-5,2.71,1.35-29.88-13.44-57.71-43.12-65.38-14.05-3.63-28.37-2.04-41.86,3.38-14.72,5.91-26.18,15.67-36.24,27.8-17.72,21.37-23.58,50.64-11.22,75.9l23.66,48.35c9.13,19.96,16.53,39.75,19.91,61.53,2.79,19.48,1.63,38.07-.18,58.59,14.5-18.71,30.53-33.75,50.19-45.49,14.77-8.82,29.2-16.04,44.92-23.23,28.05-12.82,54.6-27.08,79.99-44.57,21.21-14.62,38.54-34.64,41.89-60.49,2.36-18.22-6.88-33.81-23.32-41.36-24.03-11.04-49.41-8.18-75.2-2.5-15.92,3.51-23.91,10.3-28.2,10.81ZM189.48,44.16c3.32-4.44,4.91-7.89,4.46-12.07-1.95-2.61-4.78-3.47-7.28-3-2.76.52-5.46,1.7-6.76,4.46l9.58,10.61ZM79.39,38.96c-6.56-2.32-11.46.5-14.26,5.21-.42,3.22.36,6.22,2.91,7.79l11.34-13ZM197.85,63.09c9.25-6.31,10.26-17.09,5.09-18.37-3.72-.92-8.07,1.85-10.69,4.13l5.6,14.24ZM55.93,70.64l8.65-14.38c-7.53.72-14.4,5.93-12.71,11.6.36,1.21,2.5,3.29,4.06,2.78ZM15.95,63.04c-.28-.89-1.33-.55-1.13.31l1.13-.31ZM216.41,64.67c-2.28-3.83-10.96-2.54-18.16-.02,1.71,7.07.94,13.19.19,19.61,8.06-5.64,20.36-15.58,17.98-19.59ZM230.67,74.34c.65-4.61,1.58-7.59,1.18-12.07-5.3,3.85-9.52,8.13-13.32,13.9l12.14-1.83ZM250.36,70.71c1.54-.58.75-6.47-.89-6.57-5.61-.17-10.32,4.69-12.99,8.88,5.36-.67,9.31-.73,13.88-2.31ZM272.44,71.1c-.62-4.06-1.77-5.26-3.47-7.45-5.44-1-10.83,1.94-13.15,7.17l16.61.28ZM293.57,75.45c1.48-2.27,1-6.51-.87-7.19-5.01-1.82-10.37.47-14.41,3.35l15.29,3.84ZM212.74,77.6c2.12.99,3.18-.08,3.48-.6s.65-1.81.16-3.04l-3.64,3.64ZM52.45,76.66c-1.27,0-1.86.86-1.76,1.86.09.87,1.66,1.39,2.21.59.3-.44.68-1.28.99-2.37.09-.33-.92-.63-1.43-.08ZM312.47,85.39c1.64-2.65,1.9-7.01.17-8.03-3.5-2.08-8.03-1.18-11.57,1.14l11.4,6.89ZM326.1,88.09c-3.32-2.77-8.36-1.63-11.7-1.12l8.98,10.77c2.93-2.17,5.57-7.28,2.73-9.65ZM49.6,108.92l.04-14.36c-3.52,2.37-8.64,5.56-8.65,10.27,0,3.4,6.06,5,8.61,4.09ZM68.21,162.03c1.28-1.16,1.15-2.78.21-4.55l-5.57-10.48c-1.71,1.92-5.35,4.43-5.41,7.55-.09,4.47,5.63,7.19,9.94,5.93-.5,1.67-1.78,2.23-3,2.8,2.24,1.14,2.8-.62,3.33-.86.13-.16.31-.3.52-.4ZM317.35,168.01c2.41-3.16,1.5-7.01-1.34-8.62l-10.07,13.19c4.7.59,8.82-1.15,11.42-4.57ZM68.95,162.79l-.12.65c-2.02,2.98-3.58,7.56-1.03,11.11,2.28,3.17,6.64,4.63,10.51,4l-5.83-12.89c-.82-1.81-1.75-2.97-3.53-2.88ZM290.97,185.9c4.66,1.27,7.28-.51,9.68-2.66,1.58-1.42,3.05-4.3,1.51-7.58l-11.2,10.24ZM85.83,195.38l-5.11-11.87c-2.63,1.29-5.56,4.65-4.57,7.44,1.35,3.79,6.04,4.88,9.68,4.44ZM284.63,195.86c3.02-1.38,4.13-4.48,3.05-7.53l-12.31,8.91c3.24.27,6.19.03,9.25-1.38ZM91.55,210.39l-4.54-12.33c-2.83,2.33-3.52,5.72-2.19,8.41,1.14,2.31,4.27,4.84,6.74,3.92ZM263.62,209.98c4.92-.86,7.12-5.42,6.24-9.4l-14.95,8.88c2.57.53,5.29,1.11,8.71.52ZM97.3,229.86l-2.85-10.7c-2.87,1.09-5.89,3.36-5.62,6.3.37,4.03,5.58,6.3,8.47,4.41ZM204.93,237.05c3.43.02,6.95,1.28,9.67-.77,1.9-1.42,3.62-3.79,2.52-6.95l-24.44,11.73c2,2.51,4.67,2.48,7.75,1.85,1.95-.4,3.11-3.97,4.49-5.87ZM100.11,246.17l-2.07-12.53c-2.69.25-6.01,1.51-6.99,4.26s.29,5.45,2.06,6.63c1.98,1.32,4.53,2.13,7.01,1.65ZM174.02,253.04c.73-1.79-1.34-2.53-2.23-1.55l-11.72,6.68c4.59.08,10.06-.77,13.95-5.13ZM100.48,252.82c-4.4,1.62-5.63,4.49-5.4,7.13.2,2.38,3.25,4.42,6.22,4.64l-.82-11.77ZM100.65,278.08l.56-10.56c-3.06,1.18-5.92,3.99-5.93,7.36,0,2.21,2.89,3.79,5.38,3.19ZM139.5,278.63c2.72-2.53,4.57-5.1,3.38-8.7l-10.05,8.02c1.64,2.77,4.47,2.73,6.67.68ZM123.94,288.04c3.46,1.67,5.06-.65,5.8-1.78,1.03-1.59,1.26-3.2.08-5.17-2.09,2.16-5.02,3.69-5.88,6.95ZM99.53,291.1l.63-7.92-7.25,4.97c-1.29.89-1.11,3.28-.29,4.27,1.25,1.51,6.7,1.41,6.91-1.32ZM119.9,301.62c2.04-3.3,2.05-7.01.86-10.89l-8.19,10.09c1.51,1.81,5.94,3.05,7.33.8ZM108.69,313.92c1.35-2.74,1.29-5.39.56-8.27l-6.07,8.72c1.23,1.41,4.52,1.55,5.5-.45Z"/>
      <path class="cls-1" d="M151.15,144.45c-7.2,13.78-5.8,29.92-11.16,29.48-1.93-.16-2.91-1.79-2.53-4.07,2.25-13.56,6.55-25.79,13.04-38.33-9.02,1.22-12.25-1.29-15.57-9.8l-21.6,34.86c-.82,1.32.45,4.73-1.8,5.42-1.32.41-4.84,1.13-4.99-1.59-.33-5.86,3.08-11.41,6.31-16.26l28.33-42.58c.86-1.29,3.63-.87,4.4-.2,3.55,3.05-8.02,18.87-2.02,23.68,3.63,2.92,10.5-4.01,15.75-9.58,1.1-1.17,2.67-1.44,4.01-.87,1.11.47,2.14,2.46,1.25,4.17l-13.42,25.69Z"/>
      <path class="cls-1" d="M179.89,194.23c-5.9-5.26-10.29-14.03-6.36-15.52,5.2-1.97,5.65,9.07,11.5,11.91,3.03,1.47,6.18-2.15,7.84-4.51,8.38-11.9,9.51-28.91,18.43-38.21,1.44-1.5,3.5-2.62,4.85-2.28,2.21.56,2.91,3.08,2.87,4.18.48,3.14-1.95,4.18-4.86,4.02-7.3,11.73-9.39,27-17.66,37.88-4.21,5.54-11.18,7.35-16.61,2.51Z"/>
      <path class="cls-1" d="M165.84,167.75c-.4-2.59,1.73-4.9,2.63-6.9l-6.98-3.78c-1.43-.78-2.05-1.98-2.06-3.21s.61-2.43,1.79-2.95c3.26-1.45,8.27,5.73,9.84,3.27l4.88-7.65c.85-1.33,2.4-1.67,3.88-1.01,1.05.47,1.94,2.32,1.14,4.06l-3.51,7.64c2.08.66,3.59,1.82,4.1,3.03.78,1.85-.54,4.4-2.87,3.82l-3.64-.9c-1.92-.48-2.08,4.97-5.41,6.47-1.24.56-3.46.23-3.78-1.89Z"/>
    </g>
  </g>
</svg>