<?xml version="1.0" encoding="UTF-8"?>
<svg id="Layer_2" data-name="Layer 2" xmlns="http://www.w3.org/2000/svg" viewBox="0 0 102.2 52.24">
  <defs>
    <style>
      .cls-1 {
        fill: #294621;
      }
    </style>
  </defs>
  <g id="Layer_1-2" data-name="Layer 1">
    <path class="cls-1" d="M4.56,35.1C-.48,29.14-1.76,15.06,2.86,14.53c3.38-.38,3.15,6.96,9.92,7.44l3.03-6.49c.6-1.29,2.13-1.78,3.38-1.59,3.92.6,2.43,15.25,17.51,19.4-.8-10.86-15.13-15.12-5.27-27.12,2.96-3.6,7.39-7.61,12.57-5.67,6.97,2.62,9.77,11.19,6.83,18.21-2.11-7.06-9.05-4.58-12.4-13.06-2.88,1.88-6.82,7.17-5.11,10.36,2.99,5.59,7.56,9.69,8.63,16.12s-1.95,11.99-9.02,13.13c-10.15,1.63-21.2-1.71-28.37-10.17Z"/>
    <path class="cls-1" d="M90.09,30.12c5.24,1.02,10.47-1.6,11.78.26.64.92.34,2.49-.86,3.3-3.39,2.29-5,5.9-7.92,8.65-10.04,9.45-31.58,13.62-36.8,5.84-5.17-7.71,5.24-17.36,12.8-24.75,4.46-4.36,8.4-10.45,4.54-16.29-6.16,10.81-12.52,5.67-17.93,10.26,2.63-6.89,8.37-12.3,15.39-13.76,4.71-.98,8.24,1.48,8.99,5.92.92,5.5-1.65,10.43-5.26,14.42l-10.97,12.17c5.02-2.73,8.9-4.74,14.16-6.12,4.7-1.24,7.17-7.6,10.31-8.31,1.06-.24,2.6.28,2.75,1.79.22,2.2-.36,3.98-.98,6.62Z"/>
  </g>
</svg>