<?xml version="1.0" encoding="UTF-8"?>
<svg id="Layer_2" data-name="Layer 2" xmlns="http://www.w3.org/2000/svg" viewBox="0 0 171.23 82.14">
  <defs>
    <style>
      .cls-1 {
        fill: #294621;
      }
    </style>
  </defs>
  <g id="Layer_1-2" data-name="Layer 1">
    <path class="cls-1" d="M130.44,68.29c-3.7,5.14-2.83,11.5-6.57,13.46-1.5.79-4.28.38-4.8-1.4-1.24-4.28.98-7.56,4.27-11.52-20.51.61-26.87-13.58-33.67-13.84-4.69-.18-13.03,9.64-16.61,2.8-1.33-2.54-.73-6.12,2.45-7.69,3.88-1.91,7.55-1.23,12.91-1.09-5.04-7.62-10.01-13.95-16.86-19.56-1.73-1.42-4.84,1.32-5.28,3.15l-2.19,9.29c-.37,1.57-1.49,2.64-2.47,3.11-1.19.58-3.72.9-4.75-.64-2.92-4.36-2.94-10.69-.39-15.27,1.5-2.69,4.5-3.19,7.81-4.51-10.18-5.4-22.56-2.48-32.12,4.44l4.04,20.78c.36,1.87-.3,4.12-1.95,4.67-5.42,1.8-7.08-10.65-6.44-21.6-8.06,6.92-12.18,16.01-12.22,26.93-3.86-6.05-.7-12.3,1.54-18.12-7.4-3.07-15.16-.07-16.95-7.14-.75-2.94.57-8.6,4.75-7.98,6.26.93,9.76,7.25,13.88,12.13,5.45-7.52,11.9-13.57,21.29-17.65C29.84,16.29,31.02,2.5,34.79.47c5.17-2.8,10.64,7.33,10.7,18.54,7.73-1.4,15.06-.84,21.07,3.42l11.14,7.88c-.74-5.27-1.99-7.78-.31-11.7,1.01-2.35,3.21-5.6,7.12-5.78,2.65-.12,4.43,2.13,4.8,3.82.54,2.47.28,4.67-1.4,6.93-9.44,12.68-2.03,17.5,5.72,28.33,2.28,3.18,4.92,5.29,8.63,7.42-.28-4.95-.93-8.55.59-13.07s8.77-6.92,11.94-3.22.79,9.06-2.59,11.91c-2.01,1.7-4.38,7-1.16,8.34,9.26,3.85,19.82,2.59,29.61-1.16-8.24-4.92-10-13.39-5.29-21.32.88-1.49,1.62-3.31,3.3-3.57,2.1-.33,3.96,1.34,4.16,3.71l1.02,12.36c.15,1.76,2.24,6.01,4.29,4.81l15.73-9.23c2.26-1.33,4.34-2.7,7.35-1.91-3.67,3.87-8.05,6.15-12.74,9.27l1.35,14.17c.29,3.05-1.99,4.84-4.76,4.83-2.32,0-3.66-2.59-3.02-5.43l2.5-11.2c-7.81,4.47-14.8,8.6-24.12,9.69ZM77.78,30.25l-.52.52.52.52.52-.52-.52-.52Z"/>
  </g>
</svg>