<?xml version="1.0" encoding="UTF-8"?>
<svg id="Layer_2" data-name="Layer 2" xmlns="http://www.w3.org/2000/svg" viewBox="0 0 191.52 126.13">
  <defs>
    <style>
      .cls-1 {
        fill: #294621;
      }
    </style>
  </defs>
  <g id="Layer_1-2" data-name="Layer 1">
    <path class="cls-1" d="M129.39,54.72c-9.42,5.21-16.32,11.6-20.86,21.85-2.14-7.61-5.04-13-10.25-17.94l.75,11.13c-10.47-3.1-20.64-4.45-31.29-4.04-12.78.48-21.72-8.43-21.81-21.18-.04-5.47,2.09-10.65,6.24-13.42,4.96-3.3,10.32-3.44,15.89-.41-.21-8.96,2.63-16.37,8.43-22.09,3.58-3.54,8.9-3.43,12.93-.48,4.9,3.58,7.87,8.84,9.93,14.95,6.67-1.34,11.86,1.42,15.62,7.66,3.22-4.59,7.08-8.51,12.33-10.44,6.16-2.26,12,.89,13.75,7.47,2.64,9.93-1.96,21.58-11.65,26.93ZM96.26,64.66c-2.42-3.15-1.25-8.37-3.29-11.79-2.27-3.82-6.62-6.49-6.88-11.56-.33-6.53,3.27-12.14,8.7-16.12-.63-4.04-2.91-7.15-5.71-9.57-3.13-2.7-7.18-2.03-10.02.71-5.38,5.19-6.7,11.95-5.93,20.18-6.75-1.29-13.39-1.24-18.9,2.43-3.2,2.13-3.72,6.41-3.03,9.83,3.23,15.8,28.97,2.47,44.07,17l.99-1.12ZM108.6,69.27l3.32-3.62c2.93-7.94,9.04-12.87,16.29-16.56,6.42-3.27,10.32-9.59,8.96-16.56-.84-4.32-4.46-7.11-8.8-6-6.09,1.56-10.74,6.1-12.54,12.41l-10.02-8.38c-5.64-3.21-14.62.99-15,7.79-.34,6.02,17.12,14.31,17.79,30.92ZM96.67,65.17l-.38,1.62c.84-.1,1.1-1.13.38-1.62Z"/>
    <path class="cls-1" d="M191.32,26.5c-8.4-.13-16.04,4.23-20.67,10.85l-.08-10.59c5.39,1.09,11.55-.92,13.9-4.49,2.42-3.69,3.42-8.75-.65-12.35-4.04,5.64-8.06,9.9-13.33,13.48-.94-1.56.29-2.45.88-2.84l.58-.54c5.35-4.43,6.61-13.4,2.69-20.01-6.25,2.77-8.95,8.26-9.54,15.65-3.01-2.63-3.13-6.98-7.66-8.99-2.76,8.69,1.08,19.76,9.43,19.49.66,2.7.93,5.73-.39,7.42-4.52-3.42-10.07-9.46-15.76-7.15-3.4,2.18-.14,9.66,2.43,11.98,3.7,3.34,7.75,4.33,13.53,1.56.03,3.75-.31,5.96-2.19,8.97-1.52-3.42-8.82-6.39-10.92-2.84-3.08,5.21,3.05,10.82,7.99,11.45.16,2.91-1.06,4.6-2.25,5.9-3.83-5.45-8.04-10.1-14.59-10.39-2.37,7.72,2.93,15.48,11.36,16.52-.56,2.73-2.18,4.8-4.46,6.89-2.75-4.41-4.46-8.29-9.62-10.76-2.93,6.01-1.43,12.97,3.09,17.9l-8.52,8.72c-.67-2.02-1.31-3.35-2.37-3.82-1.08-.48-2.87-.29-4.09.55l-6.28,4.32c-.31-2.25-1.22-4.86-3.12-5.26-2.93-.61-4.76,1.68-6.98,3.21-.32-2.94-3.11-7.05-5.32-5.63-3.65,2.35-3.09,7.75-4.16,11.77-3.34-1.55-8.12-6.78-12.35-4.77-3.48,1.65,1.07,8.01,4.56,9.25-5.06-.02-8.76,2.85-12.8,3.55-4.46.77-9.05-2-13.73-3.13,6.59-6.79,2.08-19.68-1.63-21.29-1.69-.74-4.99-.8-5.8,1.01-2.34,5.18-1.78,10.59-.34,16.59-4.42-1.72-7.78-4.21-10.93-7.66,4.98-5.26,8.86-14.86,3.04-20.36-5.38-.1-10.18,8.09-9.81,13.03-1.65-.34-2.8-.95-2.98-1.5-.36-1.05,7.73-14.29.42-19.28-2.77-1.89-5.39,3.97-7.73,5.14,2.1-6.9,3.61-12.66,1.46-18.89-5.95,3.15-8.91,9.95-10.16,10.04-.41.03-1.62-2.03-1.37-2.38,5.49-7.54,11.92-21.05,7.82-23.61-3.29-2.05-8.37,3.26-11.73,9.11-6.93-3.78-12.84-7.92-20.11-8.6-.9,10.35,7.83,15.54,16.92,15.64,1.73.02,3.75,4.77,2.4,7.4-3.32-2.43-10.42-5.07-13.86-1.73-2.72,2.64,1.31,7.81,3.79,9.11,9.46,4.97,16.23-3.09,18.48,6.72-7.87-.65-15.56.28-16.28,4.32-1.16,6.45,12.2,10.28,21.06,4.98l-16.53-3.52c4.61-2.18,8.9-.04,13.24-.43l3.16-.28c.38,3.64,2.49,4.66,5.36,6.54l-8.72,2.41c-2.38.66-3.98,2.48-4.58,4.21-.57,1.66-1.02,5.64.89,6.41,6.55,2.65,13.52-1.56,15.81-8.58l8.61,7.92c-5.22.46-9.39,1.85-12.86,4.72-.19.16-.31.4-.32.66-1.31.07-1.79,1.32-.94,2.19,8.35,8.53,19.58-2.7,22.4-1.87,1.21.36,2.38,1.2,1.94,2.54-6.33,1.26-10.26,6.37-11.27,12.82,1.41-.27,3.15-1.03,3.94-2.25,4.04-6.28,10.83-8.64,17.33-6.7-6.21,4.03-10.5,6.85-17.68,7.85,5.86,5.01,16.95.04,21.08-7.1,7.36.55,11.56,3.9,16.99,5.53-2.18,3.32-3.67,7.17-1.8,9.97,2.39,3.59,10.42-.77,14.42-8.93l1.1,7.83c.29,2.03,1.75,3.23,3.08,3.68,1.63.55,3.93.47,4.86-1.14,1.62-2.81.7-5.75.68-9.1,3.91,4.54,9.72,8.04,15.49,5.44,1.09-.49.12-4.15-.83-5.62,4.24-1.15,8.32-1.27,12.29-3.66-1.13-5.46-5.53-6.11-11.49-7.39,6.63-3.68,11.06-9.84,16.68-14.37,9.73,3.89,24.6,4.38,29.28-4.27-7.33-2.53-14.12-3.17-21.93-1.42-1.03-1.39.87-2.98,1.62-3.96,1.36-1.78,3.06.77,4.32.92,8.33,1.04,16.61-3.03,20.46-10.49-7.2-2.35-13.2-.14-19.9,3.27,2.25-4.51,4.25-7.35,5.64-12.11,1.69,2.4,3.96,2.71,6.74,2.14,7.07-1.43,9.71-8.79,10.52-14.97.37-1.23,4.04-3.58,1.68-5.57-5.63,1.46-11.14,4.94-15.11,9.64l1.95-11c6.62,1.17,11.16-1.63,15.68-5.67,3-2.69,6.56-5.17,5.46-10.01ZM181.53,19.99c-.72,1.81-5.48,4.29-7.94,4.82.98-1.62,5.82-3.95,7.94-4.82ZM162.1,20.12c-.75-.79-1.88-3.28-2.02-4.35l-.22-2.86,5.63,8.86-3.39-1.65ZM152.42,29.11c4.84,2.12,8.94,3.93,12.85,8.96-5.48,1.45-12.43-2.17-12.85-8.96ZM5.08,39.78c3.66.66,5.98,1.64,9.45,4.48-3.49.47-7.45-.94-9.45-4.48ZM7.89,58.86c4.86-1.34,9.05-.01,12.76,2.01-5.11,1.18-8.77.5-12.76-2.01ZM28.09,39.31c-.63,4.48-2.49,7.64-5.05,10.96-.74-4.88,1.76-8.2,5.05-10.96ZM28.71,65.64c-.9-3.42,2.42-6.06,4.33-8.38-.7,3.57-.92,5.94-4.33,8.38ZM32.68,71.34c-.76-.3-.84-2.18-.27-2.72.71-.68,1.59-.27,1.83.28.46,1.08-1.38,2.51-1.55,2.44ZM27.8,91.88c2.32-3.06,5.57-4.24,10.52-3.42-2.83,1.95-6.26,2.96-10.52,3.42ZM38.82,77.81c-2.12,2.38-3.9-3.58.96-12.64,3.12,3.31.21,11.31-.96,12.64ZM49.16,90.24c-2.48-6.15-.07-11.6,2.28-17.02,2.17.88,2.77,2.78,2.05,4.82l-4.33,12.2ZM37.53,100.89l.31-.54c4.3-.72,8.51-1.92,13-1.6-4.07,3.38-9.45,4.07-13.32,2.15ZM66.49,99.23c-3.4-4.69-2.61-10.6.03-15.72,3.74,4.07,5.27,10.62-.03,15.72ZM96.22,98.7c-.93-.67-1.14-1.97-.46-2.9l7.3,4.76c.55.36.76,1.07.49,1.67-.06.14-.19.24-.34.26-.63.07-1.26-.04-1.83-.32l-5.16-3.47ZM92.01,120.1c-.26-7.17,10.59-7.92,10.13-10.97-.62-4.16-6.89.17-13.45-.95,4.32-2.28,9.13-2.53,14.17-2.04.74.3,1.37,2.31,1.39,3.38-3.69,3.73-6.48,7.76-12.25,10.58ZM119.65,91.94c-.79,7.06-3.59,12.4-6.65,9.05,1.52-3.41,3.47-6.44,6.65-9.05ZM109.81,89.81c2.73,3.67,2.56,8.22.04,11.85-2.51-3.92-2.4-8.01-.04-11.85ZM108.48,122.82c-2.58-1.9-2.11-9.25-1.16-10.74.61-.95,2.48-.69,2.56.18.38,4.2.96,7.27-1.4,10.56ZM106.34,106.35c-.92-2.89,6.61-4.22,7.56-2.21,1.28,2.71-6.57,5.3-7.56,2.21ZM115.93,114.21c-.28-.2-.75-.85-.98-1.1l-.97-1.22c-.74-.42-.46-1.43.45-1.37l1.43,1.57,1,1.05c2.43.89,5.59,1.89,8.16,4.31-2.87,1.13-7.11-.39-9.08-3.23ZM133.2,109.57c-5.13,2.52-11.61,2.9-17.65-.54l17.65.54ZM119.8,103.18c1.86-3.78,5.9-5.21,9.73-8.05-1.97,3.72-4.69,7.14-9.73,8.05ZM143.9,71.53c2.49,2.39,4.73,3.46,5.02,8.77-4.34.74-5.76-5.18-5.02-8.77ZM160.12,87c2.33.09,5.37-1.4,7.11,1.93l-17.75-.14c3.18-2.48,6.42-1.95,10.64-1.79ZM147.85,56.19c3.82,3.45,8.23,6.07,10.07,12.1-4.96-.9-12.16-7.5-10.07-12.1ZM173.54,72.93c-3.53,5.27-10.71,6.1-16.82,6.43,4.75-4.34,9.41-7.24,16.82-6.43ZM162.79,56.03c-3.35-1.02-6.04-3.48-6.98-7.19,2.86-.3,5.86.52,7.68,3.22.69,1.03.04,2.91-.7,3.97ZM179.77,50.73c-2.44,4.74-5.37,9.14-11.34,9.75,1.11-4.69,5.14-7.81,9.66-10.04M173.2,6.09c1.27,5.16-.88,9.2-2.16,13.17-.06.18-.19.35-.57.47-2.79-3.85-2.34-10.7,2.73-13.64ZM173.49,40.36c1.52-4.06,5.93-7.79,10.28-7.7-3.22,4.32-6.2,5.59-10.28,7.7Z"/>
  </g>
</svg>